PathFileType	4	(X/Y/Z)	RBDS024\RBDS024runT25.trc
DataRate	CameraRate	NumFrames	NumMarkers	Units	OrigDataRate	OrigDataStartFrame	OrigNumFrames
150.000000	150.000000	5	33	mm	150.000000	0	4500
Frame#	Time	L.ASIS			L.Heel.Bottom			L.Heel.Lateral			L.Heel.Top			L.Iliac.Crest			L.MT1			L.MT5			L.PSIS			L.Shank.Bottom.Lateral			L.Shank.Bottom.Medial			L.Shank.Top.Lateral			L.Shank.Top.Medial			L.Thigh.Bottom.Lateral			L.Thigh.Bottom.Medial			L.Thigh.Top.Lateral			L.Thigh.Top.Medial			R.ASIS			R.ASY			R.Heel.Bottom			R.Heel.Lateral			R.Heel.Top			R.Iliac.Crest			R.MT1			R.MT5			R.PSIS			R.Shank.Bottom.Lateral			R.Shank.Bottom.Medial			R.Shank.Top.Lateral			R.Shank.Top.Medial			R.Thigh.Bottom.Lateral			R.Thigh.Bottom.Medial			R.Thigh.Top.Lateral			R.Thigh.Top.Medial			
		X1	Y1	Z1	X2	Y2	Z2	X3	Y3	Z3	X4	Y4	Z4	X5	Y5	Z5	X6	Y6	Z6	X7	Y7	Z7	X8	Y8	Z8	X9	Y9	Z9	X10	Y10	Z10	X11	Y11	Z11	X12	Y12	Z12	X13	Y13	Z13	X14	Y14	Z14	X15	Y15	Z15	X16	Y16	Z16	X17	Y17	Z17	X18	Y18	Z18	X19	Y19	Z19	X20	Y20	Z20	X21	Y21	Z21	X22	Y22	Z22	X23	Y23	Z23	X24	Y24	Z24	X25	Y25	Z25	X26	Y26	Z26	X27	Y27	Z27	X28	Y28	Z28	X29	Y29	Z29	X30	Y30	Z30	X31	Y31	Z31	X32	Y32	Z32	X33	Y33	Z33	

1	0	2226.643712872222	997.301718228478	883.3359513028871	2014.758167564058	209.5657074342281	928.0977347898407	2043.465341328797	215.4648205736199	884.6766954077584	2041.926584841401	245.3403483624686	927.1999472802028	2142.974334739991	1072.776469329499	824.0278865405105	2222.148432445865	124.3707154710299	962.6215559457644	2184.037653319732	131.1708484679276	850.2770734087769	2043.478372703373	1041.793356672999	930.3799420372934	2156.825089739552	301.0271922064047	870.3090554232911	2120.278513230562	327.1048973567666	894.5086516607005	2198.052174195869	368.7553633920233	853.2681645937167	2163.096787835615	398.6427712759823	879.8618477053244	2302.275836171571	666.0899365083255	825.5283803191076	2252.892888419078	631.5828460180425	863.5946568328532	2229.026326996303	746.3883285911354	807.4183742541454	2181.504104307171	714.2537326343763	844.2169435875845	2205.75453909257	984.558820779893	1114.562614210206	1877.960864923651	95.02667313970693	1007.850819118997	1693.244723705177	134.0233005696091	976.7935989869582	1723.505154030862	134.3730488370674	1026.17260688053	1719.162362203025	168.9294789944177	982.2602446925617	2151.783848857494	1059.925514560926	1155.746387577014	1889.472626459132	47.49783037131097	952.9584889401796	1852.056761136539	49.93139955409241	1065.849036301711	2042.898595443727	1039.18846588094	1035.217725698499	1809.906230702546	232.7455589392572	1053.583695743984	1786.310412215629	260.2494968182251	1011.522892786063	1842.941000763536	303.3650777454048	1078.305206625724	1819.691995582779	328.6267289566668	1037.168926644682	2027.567691230523	626.1152636215071	1134.629563314886	1975.829574549743	642.2914292979872	1086.29020639218	2039.094609979476	733.1371668734872	1152.607039055857	1988.77437194651	748.3514520616289	1106.745475141368	
2	0.006666666666666667	2227.567136459227	1003.385287426247	882.7391418939397	2033.025011290537	195.5289165533065	930.7537956208431	2060.814216700268	202.50350797783	887.0224099063516	2058.181640112763	232.6085322291151	929.3590763247631	2142.952619807004	1079.596935305132	824.552678541781	2244.060829698705	121.4104069765424	965.1165418926057	2205.339450682392	125.162012429196	852.9021965357954	2045.279916593519	1047.108198516976	930.9321422152775	2169.53890138746	293.5279619899695	871.6649316090993	2131.829597551823	317.7781099958762	895.9210242037345	2206.986775259288	363.0038752620013	853.977854744099	2170.680616527426	391.1945821610367	880.5395627628868	2301.363151554981	670.2141524761253	824.9243608894179	2251.613943174447	635.9500139256567	862.7289401662109	2228.784943333361	751.1659968428888	806.9673085364793	2180.876560548323	719.2099288306384	843.473427084196	2208.715963239538	988.6992724151345	1113.587733344575	1866.875151403347	97.18210253574685	1009.209344299999	1685.1048879412	145.3479841223981	976.0492604587884	1714.534116051886	143.7605391335677	1025.757325252329	1712.539331266594	178.7656476579464	982.2852074820856	2156.30482212987	1065.072439621462	1155.139553932406	1876.664984092966	49.46304341013143	953.7736390496293	1837.812780192854	52.60397845623514	1065.863158148772	2045.643409248859	1044.157251831195	1035.902447856784	1801.244823715861	240.0445299879974	1053.924918405981	1778.507373462593	266.8793759917715	1011.060332122255	1834.022641212645	310.9498304122043	1078.116998471118	1811.434150017697	335.6700862001574	1036.221579110018	2022.600740267939	633.4622244579008	1135.092038704459	1971.334160260552	650.7594565807917	1086.486439808106	2036.739883435163	740.1885739436719	1152.93133385955	1987.120624705055	756.4672901253118	1106.723589248987	
3	0.01333333333333333	2228.481206286165	1009.278188961087	882.148914138901	2051.416127844441	181.6189379206933	933.3888968867577	2078.319652690627	189.6361768241445	889.3572893831102	2074.554119436878	219.9614867206435	931.4917552044996	2142.938256906815	1086.247759125938	825.0743196262918	2265.915806096313	118.6448368542406	967.6201806033669	2226.671988680037	119.300710149803	855.5389231477927	2047.07004979086	1052.312843691233	931.4750259674864	2182.29147639914	286.0729154007321	872.992356587403	2143.441550003345	308.4796654094305	897.2949114365143	2215.93913100513	357.2359280851571	854.6534577699935	2178.301595532923	383.7098614304169	881.1731375867153	2300.36906166701	674.1426453985767	824.3374590527641	2250.220751587856	640.1235425225203	861.8379243805254	2228.493407851884	755.7699686464331	806.5329588800147	2180.173550847087	724.0000865761465	842.7129204345459	2211.612819212955	992.7666501100633	1112.629560120196	1855.800063367096	99.51725180042838	1010.565486062215	1677.083202411556	156.7550237229607	975.2911534684113	1705.649266692388	153.2624066854213	1025.327910128901	1706.004549999018	188.6691976881834	982.2926402695966	2160.750869823602	1070.142748489521	1154.54583965159	1863.888868632368	51.62232541147881	954.5962307515872	1823.605522075815	55.49802879194809	1065.864997276579	2048.34927718854	1049.072310251861	1036.573433150968	1792.713349357607	247.3629042690875	1054.2673670273	1770.82378661953	273.5658883755209	1010.633131651916	1825.302958862134	318.5126132532162	1077.954364532796	1803.371989488995	342.7241065295474	1035.331869700674	2017.825481220756	640.6471196847259	1135.542499538785	1967.022074244426	659.0222579500783	1086.677103050629	2034.479646311966	747.0840403912495	1153.247413832691	1985.543511126312	764.3857804703518	1106.698819585001	
4	0.02	2229.377900983772	1014.80538152975	881.5753655241992	2070.096667697445	167.974967688251	935.9814254584304	2096.17673729841	176.9781686502646	891.6704503782189	2091.199445828465	207.4993892868667	933.5740935319536	2142.955855066798	1092.568697422148	825.5839591013317	2287.698559883481	116.2894832012452	970.1531815439885	2248.114031908411	113.7672804085311	858.2058202661126	2048.839713083631	1057.314307989131	931.9961589429583	2195.152143081345	278.7229272853162	874.2700940359675	2155.206976767052	299.2500651377982	898.6020196050881	2224.948450024276	351.4514828359809	855.2687985045544	2186.019650307379	376.1641786236719	881.7297348686091	2299.189710233815	677.6885084128982	823.7682585459995	2248.589782242991	643.9295386111264	860.9034704762371	2228.081412525939	760.0357020512464	806.1178108010058	2179.310907986928	728.4767949620267	841.9260390583631	2214.386079053908	996.7001640274729	1111.705254997869	1844.735000344487	102.2059956032424	1011.907619169821	1669.250658750317	168.3063049345648	974.5073406798871	1696.90173363918	162.9749561683302	1024.870860664055	1699.60134244252	198.6974218889657	982.2651311120325	2165.055079310346	1075.074286112735	1153.971892951098	1851.167778475519	54.15424095515986	955.4271715109422	1809.470305246995	58.81869108247138	1065.842522748694	2050.980274664961	1053.892438092661	1037.214291482273	1784.408641412665	254.724622995936	1054.609209054598	1763.34423112874	280.3691891914701	1010.271521657391	1816.944122720823	326.0400564335237	1077.838267913132	1795.663415907827	349.8067742934804	1034.550726037199	2013.415629320295	647.5293663565802	1135.974010729384	1963.055920361553	666.9026190434785	1086.865488887611	2032.404266183562	753.688135135257	1153.553407356581	1984.114082166934	771.9369855241556	1106.678124042211	
5	0.02666666666666667	2230.250178451313	1019.81986927814	881.0302130334379	2089.179871189902	154.7379091283275	938.5063901975394	2114.522219869493	164.652830433992	893.9464453348103	2108.224529805219	195.331064137335	935.5799455451248	2143.03333586121	1098.4148262027	826.0708929065961	2309.368342069896	114.5287584385593	972.7302563351963	2269.70562285961	108.7282583680006	860.9142943837419	2050.578545782453	1062.030667706767	932.4833056280248	2208.160832980981	271.5461170514607	875.4784645045112	2167.187960374531	290.1421677962972	899.8207098966219	2234.033059391154	345.6664367864169	855.8031931609205	2193.874579391415	368.5547125835316	882.1870832146579	2297.730823092803	680.6921598781382	823.2106163254142	2246.621263823904	647.2247114497786	859.9207471075994	2227.481037387563	763.8202458508691	805.7171551486396	2178.21913760972	732.516422842249	841.1145105638444	2216.983888569004	1000.445619716211	1110.83278167994	1833.684931838032	105.3941161489244	1013.217855035632	1661.646137061123	180.0291320460549	973.6960628318615	1688.324149042631	172.9587541925244	1024.381271491465	1693.344003064521	208.882286017218	982.1909634566493	2169.155015931243	1079.809407388916	1153.421708860194	1838.530444247982	57.20538276991476	956.2604989569617	1795.45700298914	62.73360900304316	1065.789212485561	2053.502909061901	1058.57489395371	1037.810140747339	1776.404482850058	262.1476982861769	1054.947242586294	1756.132388605178	287.3391421042833	1009.999053258565	1809.076203774505	333.516994484412	1077.785078119941	1788.434642669708	356.9311927398511	1033.919205821634	2009.519055634024	653.9822409867586	1136.38171995611	1959.570985412921	674.245882608865	1087.058534782472	2030.59604120348	759.8787197462589	1153.85005331329	1982.895708148609	778.9727393665889	1106.672428217143	
